# xmcd
#
# Track frame offsets: 
#        150
#        19191
#        42785
#        61023
#        83233
#        106183
#        124942
#        143496
#        165562
#        194088
#        218883
#        241485
#        267496
#
# Disc length: 3761 seconds
#
# Revision: 1
# Processed by: cddbd v1.5.2PL0 Copyright (c) Steve Scherf et al.
# Submitted via: ExactAudioCopy v1.0b4
#
DISCID=b40eaf0d
DTITLE=Downchild Blues Band - Come On In
DYEAR=2004
DGENRE=Blues, Modern Blues, Electric Blues
TTITLE0=Come On In
TTITLE1=Scars
TTITLE2=Don't Leave It Too Long
TTITLE3=Sad Sad Day
TTITLE4=There's A Blues Band There
TTITLE5=Jump Right Up
TTITLE6=Tonight I Want To Dance With You
TTITLE7=Now You're Hooked
TTITLE8=How Long
TTITLE9=Cotton In My Ears (Instrumental)
TTITLE10=A Garden In Her Front Yard
TTITLE11=Droppin' Like Flies
TTITLE12=Cruisin' (Instrumental)
EXTD=
EXTT0=
EXTT1=
EXTT2=
EXTT3=
EXTT4=
EXTT5=
EXTT6=
EXTT7=
EXTT8=
EXTT9=
EXTT10=
EXTT11=
EXTT12=
PLAYORDER=
